<svg xmlns="http://www.w3.org/2000/svg" xmlns:svg="http://www.w3.org/2000/svg" xmlns:xlink="http://www.w3.org/1999/xlink" id="svg2" width="128" height="128" version="1.0"><defs id="defs4"><linearGradient id="linearGradient3185"><stop style="stop-color:#eee;stop-opacity:1" id="stop3187" offset="0"/><stop style="stop-color:#eee;stop-opacity:0" id="stop3189" offset="1"/></linearGradient><linearGradient id="linearGradient3133"><stop style="stop-color:#646661;stop-opacity:1" id="stop3135" offset="0"/><stop style="stop-color:#111;stop-opacity:1" id="stop3137" offset="1"/></linearGradient><radialGradient id="radialGradient3139" cx="64" cy="35.686" r="40" fx="64" fy="35.686" gradientTransform="matrix(2.1360441,0,0,1.446027,-72.706823,-26.184217)" gradientUnits="userSpaceOnUse" xlink:href="#linearGradient3133"/><linearGradient id="linearGradient3191" x1="112" x2="61.979" y1="98.411" y2="11.772" gradientUnits="userSpaceOnUse" xlink:href="#linearGradient3185"/><clipPath id="clipPath3393" clipPathUnits="userSpaceOnUse"><path style="opacity:1;fill:#dbdbdb;fill-opacity:1;stroke:none;stroke-width:.5;stroke-linecap:round;stroke-linejoin:round;stroke-miterlimit:4;stroke-dasharray:none;stroke-opacity:1" id="path3395" d="M 13.8125,8 C 10.584167,8 8,10.584167 8,13.8125 L 8,114.1875 C 8,117.41583 10.584167,120 13.8125,120 L 114.1875,120 C 117.41583,120 120,117.41583 120,114.1875 L 120,13.8125 C 120,10.584167 117.41583,8 114.1875,8 L 13.8125,8 z M 21.8125,16 L 106.1875,16 C 109.41583,16 112,18.584167 112,21.8125 L 112,106.1875 C 112,109.41583 109.41583,112 106.1875,112 L 21.8125,112 C 18.584166,112 16,109.41583 16,106.1875 L 16,21.8125 C 16,18.584166 18.584167,16 21.8125,16 z"/></clipPath><radialGradient id="radialGradient3413" cx="64" cy="35.686" r="40" fx="64" fy="35.686" gradientTransform="matrix(2.1360441,0,0,-1.446027,-72.706823,154.18422)" gradientUnits="userSpaceOnUse" xlink:href="#linearGradient3133"/><radialGradient id="radialGradient3417" cx="64" cy="35.686" r="40" fx="64" fy="35.686" gradientTransform="matrix(2.1360441,0,0,1.446027,-72.706823,-25.184217)" gradientUnits="userSpaceOnUse" xlink:href="#linearGradient3133"/><filter id="filter3351" width="1.096" height="1.096" x="-.048" y="-.048"><feGaussianBlur id="feGaussianBlur3353" stdDeviation="2"/></filter></defs><metadata id="metadata7"/><g id="layer1"><rect style="opacity:.7;fill:#000;fill-opacity:1;stroke:none;stroke-width:.5;stroke-linecap:round;stroke-linejoin:round;stroke-miterlimit:4;stroke-dasharray:none;stroke-opacity:1;filter:url(#filter3351)" id="rect3305" width="100" height="100" x="14" y="14" clip-path="url(#clipPath3393)" rx="7.435" ry="7.435"/><rect id="rect3141" width="96" height="96" x="16" y="16" rx="5.626" ry="5.626" style="opacity:.7;fill:#eee;fill-opacity:1;stroke:none;stroke-width:.5;stroke-linecap:round;stroke-linejoin:round;stroke-miterlimit:4;stroke-dasharray:none;stroke-opacity:1"/><rect style="opacity:1;fill:url(#radialGradient3139);fill-opacity:1;stroke:none;stroke-width:.5;stroke-linecap:round;stroke-linejoin:round;stroke-miterlimit:4;stroke-dasharray:none;stroke-opacity:1" id="rect2160" width="80" height="80" x="24" y="24" rx="5.626" ry="5.626"/><rect style="opacity:.7;fill:none;fill-opacity:1;stroke:#fff;stroke-width:.99999994;stroke-linecap:round;stroke-linejoin:round;stroke-miterlimit:4;stroke-dasharray:none;stroke-opacity:1" id="rect3178" width="95" height="95" x="16.5" y="16.5" rx="5.626" ry="5.626"/><g id="g3160" transform="matrix(1.6656201,0,0,1.6656201,-62.574569,-26.624804)" style="fill:#fff;fill-opacity:1"><path style="fill:#fff;fill-opacity:1;fill-rule:evenodd;stroke:none;stroke-width:8;stroke-linecap:butt;stroke-linejoin:miter;stroke-miterlimit:4;stroke-dasharray:none;stroke-opacity:1" id="path2179" d="M 44.03125 40 L 55.34375 51.3125 C 43.467571 59.035057 35.734919 71.703669 57.34375 93.3125 C 52.734046 74.873684 60.878036 66.021115 70.75 66.71875 L 84 79.96875 L 84 73.3125 L 84 40 L 44.03125 40 z" transform="matrix(0.600377,0,0,0.600377,37.568332,15.98492)"/></g></g></svg>