<svg xmlns="http://www.w3.org/2000/svg" xmlns:svg="http://www.w3.org/2000/svg" id="Calque_1" x="0" y="0" enable-background="new 0 0 32 32" version="1.1" viewBox="0 0 32 32" xml:space="preserve"><g id="_x36__4_"><g id="g849"><path id="path847" fill="#36C" d="M28,4H14c0-2.2-1.8-4-4-4H4C1.8,0,0,1.8,0,4v24c0,2.2,1.8,4,4,4h24c2.2,0,4-1.8,4-4V8C32,5.8,30.2,4,28,4z M30,28c0,1.1-0.9,2-2,2H4c-1.1,0-2-0.9-2-2V12h28V28z M30,10H2V4c0-1.1,0.9-2,2-2h6c1.1,0,2,0.9,2,2v2h16c1.1,0,2,0.9,2,2V10z"/></g></g><g id="g1052" transform="rotate(-90,15.237227,22.237227)"><g id="_x37__7_"><g id="g1038"><path id="path1036" fill="#36c" d="m 21.7,25.4 c -0.4,-0.4 -1,-0.4 -1.4,0 L 17,28.7 V 15 c 0,-0.6 -0.4,-1 -1,-1 -0.6,0 -1,0.4 -1,1 v 13.6 l -3.3,-3.2 c -0.4,-0.4 -1,-0.4 -1.4,0 -0.4,0.4 -0.4,1 0,1.4 l 4.9,4.9 c 0.2,0.2 0.5,0.3 0.8,0.3 0.3,0 0.6,-0.1 0.8,-0.3 l 4.9,-4.9 c 0.4,-0.4 0.4,-1 0,-1.4 z"/></g></g></g></svg>