<svg xmlns="http://www.w3.org/2000/svg" xmlns:svg="http://www.w3.org/2000/svg" id="Calque_1" x="0" y="0" enable-background="new 0 0 32 32" version="1.1" viewBox="0 0 32 32" xml:space="preserve"><rect id="rect7195" width="32" height="32" fill="none" fill-rule="evenodd" clip-rule="evenodd"/><path id="path7197" fill="#B6B5B6" d="M30,28.4H2c-1.1,0-2-0.9-2-2v-18c0-1.1,0.9-2,2-2h28c1.1,0,2,0.9,2,2v18C32,27.5,31.1,28.4,30,28.4z"/><path id="path7199" fill="#FBFBFB" d="M30,27.4H2c-1.1,0-2-0.9-2-2v-17c0-1.1,0.9-2,2-2h28c1.1,0,2,0.9,2,2v17C32,26.5,31.1,27.4,30,27.4z"/><g id="_x36__6_"><g id="g7203"><path id="path7201" fill="#585858" d="M22,11.4h-7c0-1.1-0.9-2-2-2h-3c-1.1,0-2,0.9-2,2v12c0,1.1,0.9,2,2,2h12c1.1,0,2-0.9,2-2v-10 C24,12.3,23.1,11.4,22,11.4z M23,23.4c0,0.6-0.4,1-1,1H10c-0.6,0-1-0.4-1-1v-8h14V23.4z M23,14.4H9v-3c0-0.6,0.4-1,1-1h3 c0.6,0,1,0.4,1,1v1h8c0.6,0,1,0.4,1,1V14.4z"/></g></g><g id="g7346" transform="matrix(0.60195183,0,0,0.60195183,6.3687707,6.8734131)" style="fill:#585858;fill-opacity:1;stroke-width:1.66127"><g id="g1052" transform="rotate(-90,15.237227,22.237227)" style="fill:#585858;fill-opacity:1;stroke-width:1.66127"><g id="_x37__7_" style="fill:#585858;fill-opacity:1;stroke-width:1.66127"><g id="g1038" style="fill:#585858;fill-opacity:1;stroke-width:1.66127"><path id="path1036" d="m 21.7,25.4 c -0.4,-0.4 -1,-0.4 -1.4,0 L 17,28.7 V 15 c 0,-0.6 -0.4,-1 -1,-1 -0.6,0 -1,0.4 -1,1 v 13.6 l -3.3,-3.2 c -0.4,-0.4 -1,-0.4 -1.4,0 -0.4,0.4 -0.4,1 0,1.4 l 4.9,4.9 c 0.2,0.2 0.5,0.3 0.8,0.3 0.3,0 0.6,-0.1 0.8,-0.3 l 4.9,-4.9 c 0.4,-0.4 0.4,-1 0,-1.4 z" style="fill:#585858;fill-opacity:1;stroke-width:2.62304"/></g></g></g></g></svg>