<svg xmlns="http://www.w3.org/2000/svg" xmlns:svg="http://www.w3.org/2000/svg" id="Calque_1" x="0" y="0" enable-background="new 0 0 32 32" version="1.1" viewBox="0 0 32 32" xml:space="preserve"><rect id="rect2" width="32" height="32" fill="none" fill-rule="evenodd" clip-rule="evenodd"/><path id="path4" fill="#B6B5B6" d="M30,28H2c-1.1,0-2-0.9-2-2V8c0-1.1,0.9-2,2-2h28c1.1,0,2,0.9,2,2v18C32,27.1,31.1,28,30,28z"/><path id="path6" fill="#FBFBFB" d="M30,27H2c-1.1,0-2-0.9-2-2V8c0-1.1,0.9-2,2-2h28c1.1,0,2,0.9,2,2v17C32,26.1,31.1,27,30,27z"/><path style="fill:none;fill-opacity:1;stroke:#585858;stroke-width:1;stroke-dasharray:none;stroke-opacity:1" id="path4838" d="m 15.90395,8.3243241 -8.037878,0.04174 -0.04175,8.0378789 8.752925,8.079624 7.406322,-7.406322 z m -3.366509,2.6932089 c 1.114988,0 2.019906,0.904918 2.019906,2.019906 0,1.114988 -0.904918,2.019906 -2.019906,2.019906 -1.114988,0 -2.019906,-0.904918 -2.019906,-2.019906 0,-1.114988 0.904918,-2.019906 2.019906,-2.019906" class="ColorScheme-Text"/></svg>