<svg xmlns="http://www.w3.org/2000/svg" xmlns:svg="http://www.w3.org/2000/svg" id="Calque_1" x="0" y="0" enable-background="new 0 0 32 32" version="1.1" viewBox="0 0 32 32" xml:space="preserve"><path style="color:#000;fill:#36c;fill-opacity:1;stroke-width:8;stroke-linecap:round;stroke-linejoin:round;paint-order:markers stroke fill;stroke:#36c;stroke-opacity:1" id="path11891" d="M 25.454197,16.881861 9.7664963,25.956555 A 1.4501236,1.4501236 0 0 1 7.5902672,24.701314 V 6.544692 A 1.4501239,1.4501239 0 0 1 9.7664965,5.2894509 L 25.454196,14.364142 a 1.4543042,1.4543042 0 0 1 1e-6,2.517719 z"/><path style="color:#000;fill:#daeeff;fill-opacity:1;stroke-width:8;stroke-linecap:round;stroke-linejoin:round;paint-order:markers stroke fill" id="path11897" d="M 25.454197,16.881861 9.7664962,25.956555 A 1.4501236,1.4501236 0 0 1 7.5902671,24.701314 V 6.544692 A 1.4501239,1.4501239 0 0 1 9.7664964,5.289451 l 15.6876996,9.074691 a 1.4543042,1.4543042 0 0 1 1e-6,2.517719 z"/></svg>